<?xml version="1.0" encoding="UTF-8"?>
<svg id="Calque_2" data-name="Calque 2" xmlns="http://www.w3.org/2000/svg" viewBox="0 0 201.63 201.63">
  <defs>
    <style>
      .cls-1 {
        fill: none;
        stroke: #293124;
        stroke-linecap: round;
        stroke-linejoin: round;
      }
    </style>
  </defs>
  <g id="Calque_1-2" data-name="Calque 1">
    <g>
      <circle class="cls-1" cx="100.82" cy="100.82" r="100.32"/>
      <path class="cls-1" d="m40.32,109.82c-1.5-2.15-2.38-5.54-1-8,.64-1.15,1.59-1.75,2-2,8.12-5.02,21.85-11.46,23-12,1.09-.51,4.73-1.67,12-4,1.26-.4,3.32-1.03,5,0,1.59.98,1.97,2.86,2,3,.3,1.66-.46,3.12-1,4-4.6,7.49-20.41,17.66-24,20-.54.35-1.94,1.27-4,2-1.22.43-3.38,1.2-6,1-1.09-.08-5.49-.41-8-4Z"/>
      <path class="cls-1" d="m65.32,120.82c-.34-1.6-.11-2.61,0-3,.38-1.36,1.23-2.32,2-3,5.3-4.73,23-13,23-13,1.03-.48,6.61-3.1,13-4,1.63-.23,4.06-.45,6,1,.26.19,1.7,1.27,2,3,.43,2.47-1.75,4.74-3,6-7.21,7.28-13.89,11.89-21,17-1.75,1.26-4.24,3.06-8,4-2.33.58-5.06,1.27-8,0-4.74-2.05-5.87-7.38-6-8Z"/>
      <path class="cls-1" d="m75.32,148.82c-.16-.68-.32-1.77,0-3,.54-2.09,2.13-3.35,3-4,6.39-4.76,20.8-11.44,22-12,2.33-1.08,6.89-3.23,13-4,3.02-.38,5.02-.25,6,1,1.09,1.39.43,3.58,0,5-1.25,4.13-4.28,6.59-6,8-8.53,7.01-14.52,11.08-22,15-1.36.71-3.76,1.94-7,2-1.52.03-5.88.11-8-3-1.28-1.89-1.13-4.06-1-5Z"/>
      <line class="cls-1" x1="2.43" y1="120.5" x2="39.32" y2="101.82"/>
      <line class="cls-1" x1="11.08" y1="145.69" x2="70.11" y2="112.71"/>
      <line class="cls-1" x1="27.44" y1="169.22" x2="78.32" y2="141.82"/>
      <path class="cls-1" d="m53.79,189.44l43.73-24.6c1.37-.66,3.3-1.76,5.29-3.52,1.04-.92,1.77-1.74,2-2,3.28-3.83,2.22-11.56,2-13"/>
      <path class="cls-1" d="m102.11,113.59c.45,1.57.93,3.98.71,6.91-.28,3.85-1.63,6.73-2.51,8.31"/>
      <path class="cls-1" d="m74.4,99.19c-.15,1.64-.34,3.35-.58,5.12-.29,2.1-.63,4.1-1,6"/>
      <path class="cls-1" d="m142.88,43.09c10.15,1.68,19.02,3.25,21.17,3.63.25.06,1.16.32,1.81,1.21.55.75.6,1.53.6,1.81l-3.02,20.56c0,.14.14,2.96-1.81,4.23-.8.52-1.67.59-1.81.6-1.21.09-2.11-.41-2.42-.6l-13.34-6.45-5.41-2.62c-.32-.09-1.58-.5-2.42-1.81-.86-1.35-.66-2.71-.6-3.02l3.02-15.12c0-.53.1-1.27.6-1.81.95-1.02,2.77-.75,3.63-.6Z"/>
      <path class="cls-1" d="m144.06,68.09l-3.29,20.06c-.03.3-.19,2.21,1.21,3.63.91.92,1.98,1.13,2.42,1.21.19.03,2.49.41,4.23-1.21.71-.66,1.05-1.39,1.21-1.81l2.95-17.65"/>
      <path class="cls-1" d="m141.5,91.19c-.51,4.98-2.03,8.66-3.15,10.87-2.5,4.94-7.62,11.63-11.49,12.7-.35.1-1.5.37-1.81,1.21-.36.95.55,2.15,1.21,3.02,1.01,1.33,1.21.94,2.42,2.42,2.18,2.66,2.42,3.02,2.42,3.02.12.18.28.45.6.6.86.41,2-.33,2.42-.6,3.12-2.04,6.47-9.85,6.65-10.28,3.53-8.24,3.35-7.63,3.63-8.47,1.01-3.07,2.03-7.16,2.42-12.1v-.78"/>
    </g>
  </g>
</svg>