<?xml version="1.0" encoding="UTF-8"?>
<svg id="Calque_2" data-name="Calque 2" xmlns="http://www.w3.org/2000/svg" viewBox="0 0 201.63 201.63">
  <defs>
    <style>
      .cls-1 {
        fill: none;
        stroke: #293124;
        stroke-linecap: round;
        stroke-linejoin: round;
      }
    </style>
  </defs>
  <g id="Calque_1-2" data-name="Calque 1">
    <g>
      <circle class="cls-1" cx="100.82" cy="100.82" r="100.32"/>
      <g>
        <polyline class="cls-1" points="87.85 45.13 40.19 20.89 47.56 15.07 53.46 12.36 95.63 33.81"/>
        <path class="cls-1" d="m95.28,32.75c-.21,1.51-.81,4.28-2.83,7.19-1.94,2.78-4.28,4.41-5.66,5.23,8.27,4.06,11.88,9.09,13.44,11.76,1.5,2.57,2.22,4.91,3.54,9.15.51,1.63,1.96,6.5,2.83,13.06.9,6.79.13,8.38.71,12.41.17,1.2.43,2.38,0,3.92-.27.97-.64,1.46-.71,2.61-.05.89-.11,2,.71,2.61.8.59,2.04.42,2.83,0,1.13-.6,1.36-1.72,1.41-1.96.19-.87-.26-1.38-.71-2.61-.27-.75-.42-1.59-.71-3.27-.45-2.63-.13-4.87,0-5.88,1.03-8.16-1.13-13.5,1.41-23.52,1.73-6.81,2.6-10.22,3.54-11.76.46-.76,1.55-2.42,1.41-4.57-.15-2.44-1.79-4.22-2.12-4.57-1.02-1.07-2.13-1.65-2.83-1.96l-16.27-7.84Z"/>
      </g>
      <g>
        <rect class="cls-1" x="42.56" y="110.07" width="122" height="13" rx="6.5" ry="6.5"/>
        <path class="cls-1" d="m129.86,178.07h-51.59c-16.41,0-29.71-13.3-29.71-29.71v-25.29h109v27.3c0,15.3-12.4,27.7-27.7,27.7Z"/>
        <path class="cls-1" d="m48.56,135.92c1.65.17,4.09.5,7,1.15,10.77,2.42,13.53,6.13,21,8,8.12,2.03,15.17.23,20-1,9.79-2.5,9.61-5.68,19-8,4.51-1.12,12.61-2.38,22,0,6.9,1.75,11.96,4.82,15,7l5,2.92"/>
      </g>
    </g>
  </g>
</svg>