<?xml version="1.0" encoding="UTF-8"?>
<svg id="Calque_2" data-name="Calque 2" xmlns="http://www.w3.org/2000/svg" viewBox="0 0 178.39 178.39">
  <defs>
    <style>
      .cls-1 {
        fill: none;
        stroke: #273123;
        stroke-linecap: round;
        stroke-linejoin: round;
      }
    </style>
  </defs>
  <g id="Calque_1-2" data-name="Calque 1">
    <g>
      <rect class="cls-1" x="42.21" y="45.6" width="93.96" height="93.96" rx="1.13" ry="1.13"/>
      <rect class="cls-1" x="48.04" y="115.46" width="15.61" height="15.61" rx=".4" ry=".4"/>
      <rect class="cls-1" x="69.6" y="115.46" width="15.61" height="15.61" rx=".4" ry=".4"/>
      <rect class="cls-1" x="91.59" y="115.46" width="15.61" height="15.61" rx=".4" ry=".4"/>
      <rect class="cls-1" x="48.04" y="93.9" width="15.61" height="15.61" rx=".4" ry=".4"/>
      <rect class="cls-1" x="70.53" y="93.9" width="15.61" height="15.61" rx=".4" ry=".4"/>
      <rect class="cls-1" x="91.8" y="93.9" width="15.61" height="15.61" rx=".4" ry=".4"/>
      <rect class="cls-1" x="113.37" y="93.9" width="15.61" height="15.61" rx=".4" ry=".4"/>
      <rect class="cls-1" x="69.81" y="73.59" width="15.61" height="15.61" rx=".4" ry=".4"/>
      <rect class="cls-1" x="91.8" y="73.59" width="15.61" height="15.61" rx=".4" ry=".4"/>
      <rect class="cls-1" x="113.37" y="73.59" width="15.61" height="15.61" rx=".4" ry=".4"/>
      <line class="cls-1" x1="42.21" y1="65.34" x2="136.18" y2="65.1"/>
      <line class="cls-1" x1="116.68" y1="52.36" x2="116.87" y2="38.83"/>
      <line class="cls-1" x1="89.1" y1="52.41" x2="89.29" y2="38.87"/>
      <line class="cls-1" x1="61.53" y1="52.46" x2="61.72" y2="38.92"/>
    </g>
    <circle class="cls-1" cx="89.2" cy="89.2" r="88.7"/>
  </g>
</svg>