<?xml version="1.0" encoding="UTF-8"?>
<svg id="Calque_2" data-name="Calque 2" xmlns="http://www.w3.org/2000/svg" viewBox="0 0 201.63 201.63">
  <defs>
    <style>
      .cls-1 {
        stroke: #293124;
      }

      .cls-1, .cls-2 {
        fill: none;
        stroke-linecap: round;
        stroke-linejoin: round;
      }

      .cls-2 {
        stroke: #2d2d2d;
      }
    </style>
  </defs>
  <g id="Calque_1-2" data-name="Calque 1">
    <g>
      <circle class="cls-1" cx="100.82" cy="100.82" r="100.32"/>
      <path class="cls-2" d="m90.57,33.48c.56.25,1.13.48,1.68.76,2.61,1.36,4.16,3.51,4.95,6.16,1.31,4.37,1.96,8.84,2.31,13.33.23,3.02.43,6.06.35,9.07-.09,3.82-2.24,6.34-6.01,7.65-2.71.94-5.54,1.39-8.35,1.94-1.51.3-3.03.58-4.55.88-1.8.35-2.65,1.5-2.37,3.24,1.5,9.47,4.3,18.62,8.12,27.52,4.11,9.58,9.34,18.6,15.84,26.96.95,1.23,2.07,1.71,3.32,1.31.52-.17,1.01-.5,1.44-.84,2.54-2.06,5.17-4.01,8.19-5.43,1.53-.72,3.11-1.28,4.82-1.49,2.74-.35,5.2.25,7.31,2.06,3.67,3.14,7.01,6.58,10.09,10.24,2.03,2.41,3.92,4.92,5.47,7.64.81,1.43,1.43,2.93,1.7,4.53.49,2.99-.62,5.45-2.75,7.53-2.71,2.66-6.03,4.42-9.7,5.64-5.8,1.93-11.74,2.25-17.8.88-5.17-1.17-9.87-3.35-14.11-6.4-9.15-6.6-16.88-14.5-23.09-23.65-10.2-15.04-16.99-31.29-19.73-48.92-1.02-6.56-1.35-13.15-.84-19.73.32-4.15.93-8.26,2.47-12.18,2.39-6.08,6.53-10.8,12.24-14.29,3.94-2.41,8.21-4.09,12.92-4.69,1.17-.15,2.38-.11,3.57-.16.83.16,1.66.31,2.49.47Z"/>
    </g>
  </g>
</svg>