<?xml version="1.0" encoding="UTF-8"?>
<svg id="Calque_2" data-name="Calque 2" xmlns="http://www.w3.org/2000/svg" viewBox="0 0 201.63 201.63">
  <defs>
    <style>
      .cls-1 {
        fill: none;
        stroke: #293124;
        stroke-linecap: round;
        stroke-linejoin: round;
      }
    </style>
  </defs>
  <g id="Calque_1-2" data-name="Calque 1">
    <g>
      <circle class="cls-1" cx="100.82" cy="100.82" r="100.32"/>
      <g>
        <ellipse class="cls-1" cx="102.85" cy="55.69" rx="60.07" ry="15.3"/>
        <ellipse class="cls-1" cx="102.08" cy="55.69" rx="15.69" ry="3.06"/>
        <path class="cls-1" d="m144.23,66.79c2.84,1.25,4.22,2.4,4.15,3.45-.32,4.45-25.85,7.07-45.91,6.89-21.15-.19-45.15-3.57-45.15-6.89,0-.96,2.02-1.76,3.83-2.3"/>
        <path class="cls-1" d="m144.04,79.2c2.84,1.25,4.22,2.4,4.15,3.45-.32,4.45-25.85,7.07-45.91,6.89-21.15-.19-45.15-3.57-45.15-6.89,0-.96,2.02-1.76,3.83-2.3"/>
        <path class="cls-1" d="m144.04,73.07c2.84,1.25,4.22,2.4,4.15,3.45-.32,4.45-25.85,7.07-45.91,6.89-21.15-.19-45.15-3.57-45.15-6.89,0-.96,2.02-1.76,3.83-2.3"/>
        <path class="cls-1" d="m144.04,85.32c2.84,1.25,4.22,2.4,4.15,3.45-.32,4.45-25.85,7.07-45.91,6.89-21.15-.19-45.15-3.57-45.15-6.89,0-.96,2.02-1.76,3.83-2.3"/>
        <path class="cls-1" d="m144.04,90.4c2.84,1.25,4.22,2.4,4.15,3.45-.32,4.45-25.85,7.07-45.91,6.89-21.15-.19-45.15-3.57-45.15-6.89,0-.96,2.02-1.76,3.83-2.3"/>
        <path class="cls-1" d="m144.04,96.52c2.84,1.25,4.22,2.4,4.15,3.45-.32,4.45-25.85,7.07-45.91,6.89-21.15-.19-45.15-3.57-45.15-6.89,0-.96,2.02-1.76,3.83-2.3"/>
        <path class="cls-1" d="m144.2,102.56c2.84,1.25,4.22,2.4,4.15,3.45-.32,4.45-25.85,7.07-45.91,6.89-21.15-.19-45.15-3.57-45.15-6.89,0-.96,2.02-1.76,3.83-2.3"/>
        <path class="cls-1" d="m143.44,108.68c2.84,1.25,4.22,2.4,4.15,3.45-.32,4.45-25.85,7.07-45.91,6.89-21.15-.19-45.15-3.57-45.15-6.89,0-.96,2.02-1.76,3.83-2.3"/>
        <path class="cls-1" d="m144.2,114.8c2.84,1.25,4.22,2.4,4.15,3.45-.32,4.45-25.85,7.07-45.91,6.89-21.15-.19-45.15-3.57-45.15-6.89,0-.96,2.02-1.76,3.83-2.3"/>
        <path class="cls-1" d="m143.44,120.93c2.84,1.25,4.22,2.4,4.15,3.45-.32,4.45-25.85,7.07-45.91,6.89-21.15-.19-45.15-3.57-45.15-6.89,0-.96,2.02-1.76,3.83-2.3"/>
        <path class="cls-1" d="m143.05,127.16c2.84,1.25,4.22,2.4,4.15,3.45-.32,4.45-25.85,7.07-45.91,6.89-21.15-.19-45.15-3.57-45.15-6.89,0-.96,2.02-1.76,3.83-2.3"/>
        <path class="cls-1" d="m143.05,133.28c2.84,1.25,4.22,2.4,4.15,3.45-.32,4.45-25.85,7.07-45.91,6.89-21.15-.19-45.15-3.57-45.15-6.89,0-.96,2.02-1.76,3.83-2.3"/>
        <path class="cls-1" d="m143.81,139.4c2.84,1.25,4.22,2.4,4.15,3.45-.32,4.45-25.85,7.07-45.91,6.89-21.15-.19-45.15-3.57-45.15-6.89,0-.96,2.02-1.76,3.83-2.3"/>
        <path class="cls-1" d="m56.52,124.37c-1.62.02-4.7-.18-7.63-2.1-4.39-2.88-5.58-7.72-6.12-9.95-.96-3.93-.22-5.73,0-14.54.09-3.62.05-6.56,0-8.42"/>
        <path class="cls-1" d="m147.2,136.73c4.17.68,6.7,1.72,6.7,1.72,4.56,2.25,9.2,5.3,9.02,8.63-.47,8.54-32.42,14.76-58.16,14.98-27.85.24-61.51-6.42-61.98-15.3-.13-2.39,4.55-6.39,8.42-8.42,1.51-.8,2.87-1.26,3.83-1.53l1.11-.08"/>
      </g>
    </g>
  </g>
</svg>