<?xml version="1.0" encoding="UTF-8"?>
<svg id="Calque_2" data-name="Calque 2" xmlns="http://www.w3.org/2000/svg" viewBox="0 0 201.63 201.63">
  <defs>
    <style>
      .cls-1 {
        fill: none;
        stroke: #293124;
        stroke-linecap: round;
        stroke-linejoin: round;
      }
    </style>
  </defs>
  <g id="Calque_1-2" data-name="Calque 1">
    <g>
      <circle class="cls-1" cx="100.82" cy="100.82" r="100.32"/>
      <path class="cls-1" d="m138.59,118.8c-.3.16-4.7,2.42-8.97,0-3.09-1.75-5.15-5.41-4.48-8.97.83-4.47,5.5-6.25,6.72-6.72,6.55-2.51,12.75,1.74,13.45,2.24,6.63,4.71,6.73,12.69,6.72,13.45,0,1.61-.27,7.03-4.48,11.21-3.66,3.63-8.1,4.13-11.21,4.48-2.71.31-11.3,1.28-17.93-4.48-7.28-6.33-6.89-16.15-6.72-20.17.14-3.39.46-11.51,6.72-17.93,8.45-8.66,20.67-6.99,22.41-6.72,14.02,2.15,20.86,14.77,22.41,17.93,5.89,11.96,4.69,27.73-4.48,38.1-8.58,9.7-20.76,10.84-24.65,11.21-7.86.74-14.24-.95-17.93-2.24l-22.41-20.17"/>
      <path class="cls-1" d="m64.63,100.87c-2.36-1.49-6.06-4.28-8.97-8.97-.22-.36-1.41-2.29-2.24-4.48-3.66-9.67,1.23-20.33,2.24-22.41,1.24-2.57,5.56-11.15,15.69-15.69,2.75-1.23,9.49-3.77,17.93-2.24,5.16.93,8.98,3.03,11.21,4.48l49.85,37.07"/>
      <path class="cls-1" d="m80.32,114.32c1.73-1.25,6.83-4.59,13.45-3.91,1.64.17,5.93.61,8.97,3.91.78.85,2.18,2.37,2.24,4.48.09,3.02-2.62,5.22-4.48,6.72-3.9,3.16-8.26,4.16-11.21,4.48,2.65,4.51,3.87,8.54,4.48,11.3,1.25,5.64.4,7.97,0,8.87-.34.77-1.66,3.76-4.48,4.48-2.59.66-4.91-.97-6.72-2.24-3.86-2.71-5.78-6.46-6.72-8.97-1.12,2.18-3.92,6.78-9.39,9.14-3.94,1.7-10.78,2.91-13.02-.18-1.08-1.48-.7-3.41,0-6.72,1.02-4.83,2.89-8.6,4.48-11.21-2.41-.29-6.94-1.17-11.21-4.48-1.27-.99-8.26-6.64-6.72-11.21.86-2.56,4.01-3.59,6.72-4.48,6.11-2.01,11.87-1.1,15.69,0-.58-1.74-1.78-6.23,0-11.21,1.17-3.25,3.09-5.27,4.48-6.72,2.59-2.72,4.45-4.66,6.72-4.48,4.35.35,6.52,8.22,6.72,8.97,1.01,3.8.46,7.11,0,8.97v4.48Z"/>
      <path class="cls-1" d="m66.87,123.28c2.34-2.85,6.46-2.28,6.72-2.24,3.14.49,6.57,3.05,6.72,6.72.13,3.16-2.23,5.65-4.48,6.72-.36.17-3.71,1.71-6.72,0-3.68-2.09-4.93-7.93-2.24-11.21Z"/>
    </g>
  </g>
</svg>