<?xml version="1.0" encoding="UTF-8"?>
<svg id="Calque_2" data-name="Calque 2" xmlns="http://www.w3.org/2000/svg" viewBox="0 0 201.63 201.63">
  <defs>
    <style>
      .cls-1 {
        fill: none;
        stroke: #293124;
        stroke-linecap: round;
        stroke-linejoin: round;
      }
    </style>
  </defs>
  <g id="Calque_1-2" data-name="Calque 1">
    <g>
      <path class="cls-1" d="m123.63,197.76c.65-.32,1.82-1.02,2.79-2.34,1.28-1.73,1.47-3.52,1.51-4.25l-.21-53.88c-.01-3.67,2.94-6.66,6.61-5.69l15.7-.13c3.3-1.03,6.09-3.47,6.54-6.74l2.24-16.09c.56-4.01-2.55-7.58-6.6-7.58h-17.67c-3.65,0-6.62-2.94-6.66-6.59l-.18-15.59c0-.3.01-.61.05-.91.19-1.39,1-5.18,4.28-7.45,4.09-2.82,6.89-2.58,6.89-2.58h16c3.7,0,6.7-3.02,6.66-6.73l-.14-14.64c-.03-3.42-2.64-6.26-6.04-6.57-11.49-1.07-36.43-2.11-46.87,7.5-13.79,12.69-13.53,24.9-13.53,24.9l-.59,22.05c-.1,3.57-2.98,6.42-6.55,6.48l-15.04.25c-3.68.06-6.61,3.1-6.55,6.78l.28,16.15c.06,3.63,3.03,6.55,6.66,6.55h14.39c3.67,0,6.65,2.96,6.66,6.63l.27,57.89c0,.91.13,2.37,1.08,3.58.9,1.16,3.22,2.94,17,1,2.79-.39,6.55-1.01,11-2Z"/>
      <circle class="cls-1" cx="100.82" cy="100.82" r="100.32"/>
    </g>
  </g>
</svg>