<?xml version="1.0" encoding="UTF-8"?>
<svg id="Calque_2" data-name="Calque 2" xmlns="http://www.w3.org/2000/svg" xmlns:xlink="http://www.w3.org/1999/xlink" viewBox="0 0 204 204">
  <defs>
    <style>
      .cls-1 {
        stroke: #293124;
        stroke-linecap: round;
        stroke-linejoin: round;
      }

      .cls-1, .cls-2 {
        fill: none;
      }

      .cls-3 {
        clip-path: url(#clippath);
      }

      .cls-2, .cls-4 {
        stroke-width: 0px;
      }

      .cls-4 {
        fill: #293124;
      }
    </style>
    <clipPath id="clippath">
      <rect class="cls-2" width="204" height="204"/>
    </clipPath>
  </defs>
  <g id="Calque_1-2" data-name="Calque 1">
    <g class="cls-3">
      <g>
        <path class="cls-1" d="m102,201.39c54.89,0,99.39-44.5,99.39-99.39S156.89,2.61,102,2.61,2.61,47.11,2.61,102s44.5,99.39,99.39,99.39Z"/>
        <path class="cls-1" d="m86.77,3.76c-7.2,17.27-11.48,32.35-14.09,43.67-4.8,20.71-8.5,37.25-4.75,57.91,2.03,11.32,5.69,20.24,8.56,26.3"/>
        <path class="cls-1" d="m135.34,8.35c-1.57,12.68.37,21.81,2.24,27.55,5.27,16.12,14.24,19.83,17.53,35.9,2.09,10.12,0,18.52-.99,22.07-4.02,15.13-13.88,23.06-23.9,33.39-17.79,18.42-25.62,28.9-29.53,38.77-5.43,13.62-4.85,26.61-3.76,34.8"/>
        <path class="cls-1" d="m118.9,73.1c-9.34,9.13-20.87,22.23-31.46,39.7-7.77,12.83-15.5,25.1-19.67,43.36-3.6,15.76-3.08,29.22-2.09,37.98"/>
        <path class="cls-1" d="m116.87,143.01c1.57,7.25,2.87,16.75,2.61,27.91-.31,12.05-2.45,22.17-4.59,29.63"/>
        <path class="cls-1" d="m81.39,70.28c3.18,1.36,7.83,3.81,12.47,8.09,4.8,4.38,7.67,8.92,9.29,12.05"/>
        <path class="cls-4" d="m94.28,37.3c1.09,0,1.98-.89,1.98-1.98s-.89-1.98-1.98-1.98-1.98.89-1.98,1.98.89,1.98,1.98,1.98Z"/>
      </g>
    </g>
  </g>
</svg>