<?xml version="1.0" encoding="UTF-8"?>
<svg id="Calque_2" data-name="Calque 2" xmlns="http://www.w3.org/2000/svg" viewBox="0 0 201.63 201.63">
  <defs>
    <style>
      .cls-1 {
        stroke: #293124;
      }

      .cls-1, .cls-2 {
        fill: none;
        stroke-linecap: round;
        stroke-linejoin: round;
      }

      .cls-2 {
        stroke: #2d2d2d;
      }
    </style>
  </defs>
  <g id="Calque_1-2" data-name="Calque 1">
    <g>
      <circle class="cls-1" cx="100.82" cy="100.82" r="100.32"/>
      <g>
        <path class="cls-2" d="m91.39,149.32c-3.96-.29-21.43-2.1-31.62-16.16-10.83-14.94-9.87-38.57,1.18-52.33,18.37-22.86,56.2-8.11,70.84-32.16,6.56-10.78,3.34-20.93,5.58-21.1,5.39-.42,30.77,58.17,3.77,95.06-2.47,3.37-21.65,28.75-49.75,26.7Z"/>
        <path class="cls-2" d="m136.82,27.12c2.09,10.44,1.28,18.67.22,24.08-5.34,27.22-29,44.15-36.59,49.58-4.25,3.04-7.25,4.68-22.37,15.06-8.62,5.92-13,8.93-16.34,11.62-10.44,8.38-17.34,13.93-21.96,23.12-2.22,4.42-5.56,12.96-4.67,25.54"/>
        <path class="cls-2" d="m82.55,113.48c9.21,1.83,18.41,3.65,27.62,5.48"/>
        <path class="cls-2" d="m105.88,97.11c3.03-8.88,6.07-17.77,9.1-26.65"/>
      </g>
    </g>
  </g>
</svg>