<?xml version="1.0" encoding="UTF-8"?>
<svg id="Calque_2" data-name="Calque 2" xmlns="http://www.w3.org/2000/svg" viewBox="0 0 203.19 203.19">
  <defs>
    <style>
      .cls-1 {
        fill: none;
        stroke: #000;
        stroke-miterlimit: 10;
      }
    </style>
  </defs>
  <g id="Calque_1-2" data-name="Calque 1">
    <g>
      <path class="cls-1" d="m70.5,52.66c11.74-.28,23.64,5.56,30.16,15.39,8.24-7.35,17.37-14.78,28.33-16.11,8.69-1.06,17.64,2.04,24.34,7.67,10.6,8.89,15.38,24.15,11.75,37.5-.24.87-.58,1.82-1.38,2.24-1.22.63-2.62-.32-3.67-1.21-7.35-6.29-14.96-12.27-22.81-17.92-1.73-1.25-4.13-2.49-5.83-1.2-1.18.89-1.35,2.67-.8,4.03.55,1.37,1.66,2.42,2.74,3.42,7.86,7.34,15.73,14.67,23.59,22.01.78.72,1.62,1.62,1.49,2.67-.15,1.23-1.65,1.92-2.86,1.68-1.22-.25-2.19-1.13-3.1-1.98-8.73-8.14-17.46-16.28-26.19-24.42-1.23-1.14-2.51-2.32-4.1-2.83-1.59-.51-3.6-.17-4.5,1.25-1.42,2.23.66,5,2.59,6.81,9.71,9.11,19.43,18.21,29.14,27.32,1.12,1.05,2.33,2.63,1.54,3.95-1.03,1.73-3.67.48-5.15-.88-7.48-6.88-14.95-13.76-22.43-20.65-1.22-1.12-2.49-2.28-4.07-2.77-1.58-.49-3.56-.11-4.42,1.31-1.31,2.17.68,4.78,2.51,6.52,8.03,7.62,16.05,15.24,24.08,22.86.92.88,1.93,2.08,1.49,3.27-.37,1.02-1.7,1.42-2.75,1.13s-1.88-1.07-2.67-1.82c-3.74-3.59-7.59-7.07-11.22-10.76-.89-.91-2.18-2.18-3.64-1.97-.8.11-1.6.65-1.98,1.41-.48.97-.14,2.07.16,2.82,1.76,4.37,8.03,11.71,10.23,13.97,1.23,1.27,2.64,2.87,2.16,4.57-.31,1.08-1.3,1.8-2.22,2.44-7.84,5.36-15.84,10.5-23.98,15.41-1.64.99-3.4,2-5.31,1.98-1.81-.02-3.46-.96-5.02-1.89-8.53-5.07-16.89-10.43-25.04-16.08-.57-.39-1.16-.82-1.44-1.45-.51-1.16.25-2.49.63-3.15,2.23-3.81,9.2-12.04,11.7-15.33.46-.61,1.37-1.83,1.05-3.12-.26-1.08-1.33-1.99-2.43-2.12-1.38-.17-2.56.9-3.15,1.48-4.11,4.02-8.22,8.04-12.33,12.07-1.31,1.29-3.54,2.57-4.75,1.19-1.15-1.31.18-3.27,1.45-4.46,7.62-7.19,15.24-14.38,22.87-21.57,1.24-1.17,2.51-2.39,3.13-3.97.62-1.58.39-3.64-1-4.63-2.14-1.54-5.02.34-6.95,2.13-7.84,7.23-15.68,14.47-23.52,21.7-.98.91-2.33,1.88-3.53,1.28-.96-.48-1.24-1.8-.88-2.81.36-1.01,1.17-1.78,1.96-2.52,9.45-8.79,18.91-17.58,28.36-26.37,2.22-2.06,4.54-5.52,2.47-7.73-2.06-2.21-5.66-.16-7.87,1.88-8.94,8.25-17.88,16.5-26.82,24.75-1.49,1.38-4.18,2.63-5.2.87-.77-1.32.45-2.89,1.57-3.94,7.84-7.29,15.67-14.58,23.51-21.87,1.77-1.65,3.69-4.18,2.39-6.22-.78-1.22-2.48-1.58-3.88-1.23s-2.6,1.27-3.74,2.16c-7.7,6.01-15.4,12.02-23.1,18.03-.7.55-1.58,1.12-2.41.82-.7-.26-1.04-1.04-1.28-1.75-6.06-18.23,6.24-39.43,24.62-44.22,2.43-.63,4.92-.97,7.41-1.03Z"/>
      <circle class="cls-1" cx="101.59" cy="101.59" r="101.09"/>
    </g>
  </g>
</svg>