<?xml version="1.0" encoding="UTF-8"?>
<svg id="Calque_2" data-name="Calque 2" xmlns="http://www.w3.org/2000/svg" viewBox="0 0 201.63 201.63">
  <defs>
    <style>
      .cls-1 {
        stroke: #293124;
      }

      .cls-1, .cls-2 {
        fill: none;
        stroke-miterlimit: 10;
      }

      .cls-2 {
        stroke: #2d2d2d;
      }
    </style>
  </defs>
  <g id="Calque_1-2" data-name="Calque 1">
    <g>
      <circle class="cls-1" cx="100.82" cy="100.82" r="100.32"/>
      <g>
        <path class="cls-2" d="m100.84,163.46c.29-.35.49-.59.69-.84,2.75-3.58,5.54-7.14,8.25-10.76,8.79-11.73,17.17-23.73,24.57-36.39,3.84-6.56,7.32-13.3,10.1-20.39,2.9-7.38,3.62-14.84,1.55-22.55-2.6-9.72-7.97-17.61-15.76-23.85-7.74-6.2-16.58-9.75-26.5-10.41-8.58-.57-16.73,1.18-24.29,5.26-12.4,6.69-20.7,16.68-23.89,30.59-.9,3.93-1.22,7.93-.58,11.95.57,3.53,1.65,6.91,2.96,10.23,3.36,8.51,7.81,16.45,12.57,24.23,7.59,12.42,16.02,24.26,24.83,35.84,1.78,2.35,3.6,4.66,5.49,7.1Z"/>
        <path class="cls-2" d="m120.33,85.04c0-10.74-8.74-19.53-19.43-19.54-10.83-.02-19.58,8.68-19.63,19.51-.05,10.77,8.74,19.58,19.55,19.58,10.74,0,19.51-8.78,19.51-19.55Z"/>
      </g>
    </g>
  </g>
</svg>